<?xml version="1.0" standalone="no"?>
<!DOCTYPE svg PUBLIC "-//W3C//DTD SVG 20010904//EN"
 "http://www.w3.org/TR/2001/REC-SVG-20010904/DTD/svg10.dtd">
<svg version="1.0" xmlns="http://www.w3.org/2000/svg"
 width="200.000000pt" height="200.000000pt" viewBox="0 0 200.000000 200.000000"
 preserveAspectRatio="xMidYMid meet">

<g transform="translate(0.000000,200.000000) scale(0.100000,-0.100000)"
fill="#000000" stroke="none">
<path d="M630 1570 l0 -70 -185 0 -185 0 0 -595 0 -595 35 0 c34 0 35 -1 35
-41 l0 -41 174 4 c190 3 202 7 250 71 27 37 26 109 -3 145 -12 15 -37 48 -56
73 -44 58 -86 79 -159 79 l-56 0 0 330 0 330 80 0 c79 0 80 0 86 -27 24 -108
51 -191 89 -270 27 -55 45 -108 46 -130 1 -33 2 -35 8 -11 6 26 8 24 69 -52
84 -106 202 -199 334 -263 l107 -52 1 -72 0 -73 35 0 c34 0 35 -1 35 -41 l0
-41 174 4 c158 3 177 5 202 24 44 33 65 67 64 105 -1 19 -3 314 -6 657 l-5
622 -584 0 -585 0 0 -70z"/>
<path d="M557 1053 c-10 -10 -8 -202 3 -247 10 -47 34 -72 75 -81 l30 -7 -25
14 c-35 19 -48 79 -49 216 -1 86 -4 112 -14 112 -8 0 -17 -3 -20 -7z"/>
</g>
</svg>
